<?xml version="1.0" encoding="UTF-8"?>
<svg xmlns="http://www.w3.org/2000/svg" style="stroke-dasharray:none; shape-rendering:auto; font-family:'Arial'; text-rendering:auto; fill-opacity:1; color-interpolation:auto; color-rendering:auto; font-size:12; fill:black; stroke:black; image-rendering:auto; stroke-miterlimit:10; stroke-linecap:square; stroke-linejoin:miter; font-style:normal; stroke-width:1; stroke-dashoffset:0; font-weight:normal; stroke-opacity:1;" contentScriptType="text/ecmascript" preserveAspectRatio="xMidYMid meet" zoomAndPan="magnify" version="1.0" contentStyleType="text/css" xml:xlink="http://www.w3.org/1999/xlink" width="1101" height="741"><rect x="10" y="10" width="1091" height="731" ry="0" rx="0" style="stroke:#000000; fill:#FFFFFF" /><rect x="40" y="448" width="1061" height="146" ry="0" rx="0" style="stroke:#000000; fill:#C9C3AC" /><g componentSequence="31"><text x="-521" y="49" transform="rotate(270)" text-anchor="middle" style="font-weight:bold;font-size:10px;stroke:none; fill:#434343"><tspan dy="14" x="-521">Solicitante</tspan></text></g><rect x="40" y="302" width="1061" height="146" ry="0" rx="0" style="stroke:#000000; fill:#D6E0D0" /><g componentSequence="12"><text x="-375" y="49" transform="rotate(270)" text-anchor="middle" style="font-weight:bold;font-size:10px;stroke:none; fill:#434343"><tspan dy="14" x="-375">Portaria</tspan></text></g><rect x="40" y="156" width="1061" height="146" ry="0" rx="0" style="stroke:#000000; fill:#D0DAAE" /><g componentSequence="11"><text x="-229" y="49" transform="rotate(270)" text-anchor="middle" style="font-weight:bold;font-size:10px;stroke:none; fill:#434343"><tspan dy="14" x="-229">RH</tspan></text></g><rect x="40" y="594" width="1061" height="147" ry="0" rx="0" style="stroke:#000000; fill:#ADC9AC" /><g componentSequence="10"><text x="-667" y="49" transform="rotate(270)" text-anchor="middle" style="font-weight:bold;font-size:10px;stroke:none; fill:#434343"><tspan dy="14" x="-667">Qualidade</tspan></text></g><rect x="40" y="10" width="1061" height="146" ry="0" rx="0" style="stroke:#000000; fill:#82B0B7" /><g componentSequence="9"><text x="-83" y="49" transform="rotate(270)" text-anchor="middle" style="font-weight:bold;font-size:10px;stroke:none; fill:#434343"><tspan dy="14" x="-83">SESMT</tspan></text></g><g componentSequence="1"><text x="-375" y="19" transform="rotate(270)" text-anchor="middle" style="font-weight:bold;font-size:10px;stroke:none; fill:#434343"><tspan dy="14" x="-375">Gestão de Prestadores de Serviço</tspan></text></g><g sequence="4"><ellipse cx="87" cy="539" rx="17" ry="17" stroke-width="1" style="fill:url(#linearGradient66FF6696FF96B6FFB6_197256105);" stroke="336633" /></g><g sequence="15"><rect x="70" y="10" width="106" height="104" ry="5" rx="5" style="fill:url(#linearGradientF8FBFEEDF5FCDEEDFAD4E7F8E2E5E9_84282529);" stroke="191970" /></g><g componentSequence="15"><text x="123" y="25" text-anchor="middle" style="font-weight:bold;font-size:10px;stroke:none; fill:#333399"><tspan dy="14" x="123">Segurança</tspan><tspan dy="14" x="123">do</tspan><tspan dy="14" x="123">Trabalho</tspan></text></g><g sequence="17"><polygon points=" 200 510 230 480 260 510 230 540 200 510" style="fill:url(#linearGradientFAFBFCFFFFCC_20547801);" stroke="000000" /></g><path style="fill:none; stroke-width:6; stroke:#000000;" d="M220.0 510.0 L240.0 510.0" /><path style="fill:none; stroke-width:6; stroke:#000000;" d="M230.0 500.0 L230.0 520.0" /><g componentSequence="17"><text x="230" y="550" text-anchor="middle" style="font-weight:bold;font-size:10px;stroke:none; fill:#333399"><tspan dy="14" x="230">Parall</tspan><tspan dy="14" x="230">el</tspan></text></g><g sequence="18"><rect x="210" y="180" width="106" height="85" ry="5" rx="5" style="fill:url(#linearGradientF8FBFEEDF5FCDEEDFAD4E7F8E2E5E9_1144719002);" stroke="191970" /></g><g componentSequence="18"><text x="263" y="195" text-anchor="middle" style="font-weight:bold;font-size:10px;stroke:none; fill:#333399"><tspan dy="14" x="263">DP - Valida</tspan><tspan dy="14" x="263">DOCS</tspan></text></g><g sequence="20"><rect x="340" y="640" width="106" height="85" ry="5" rx="5" style="fill:url(#linearGradientF8FBFEEDF5FCDEEDFAD4E7F8E2E5E9_1080260895);" stroke="191970" /></g><g componentSequence="20"><text x="393" y="655" text-anchor="middle" style="font-weight:bold;font-size:10px;stroke:none; fill:#333399"><tspan dy="14" x="393">CQ - Avalia</tspan><tspan dy="14" x="393">Risco</tspan></text></g><g sequence="22"><rect x="560" y="521" width="106" height="85" ry="5" rx="5" style="fill:url(#linearGradientF8FBFEEDF5FCDEEDFAD4E7F8E2E5E9_1966409398);" stroke="191970" /></g><g componentSequence="22"><text x="613" y="536" text-anchor="middle" style="font-weight:bold;font-size:10px;stroke:none; fill:#333399"><tspan dy="14" x="613">Anexa</tspan><tspan dy="14" x="613">DOC</tspan></text></g><g sequence="24"><rect x="710" y="626" width="106" height="85" ry="5" rx="5" style="fill:url(#linearGradientF8FBFEEDF5FCDEEDFAD4E7F8E2E5E9_948381577);" stroke="191970" /></g><g componentSequence="24"><text x="763" y="641" text-anchor="middle" style="font-weight:bold;font-size:10px;stroke:none; fill:#333399"><tspan dy="14" x="763">Valida</tspan><tspan dy="14" x="763">DOC</tspan></text></g><g sequence="27"><polygon points=" 90 202 120 172 150 202 120 232 90 202" style="fill:url(#linearGradientFAFBFCFFFFCC_605354453);" stroke="000000" /></g><g componentSequence="27"><text x="120" y="242" text-anchor="middle" style="font-weight:bold;font-size:10px;stroke:none; fill:#333399"><tspan dy="14" x="120">SES</tspan><tspan dy="14" x="120">MT/R</tspan><tspan dy="14" x="120">H</tspan></text></g><g sequence="32"><polygon points=" 340 380 370 350 400 380 370 410 340 380" style="fill:url(#linearGradientFAFBFCFFFFCC_2137311177);" stroke="000000" /></g><g componentSequence="32"><text x="370" y="420" text-anchor="middle" style="font-weight:bold;font-size:10px;stroke:none; fill:#333399"><tspan dy="14" x="370">CT ou</tspan><tspan dy="14" x="370">LC</tspan></text></g><g sequence="34"><rect x="530" y="370" width="106" height="85" ry="5" rx="5" style="fill:url(#linearGradientF8FBFEEDF5FCDEEDFAD4E7F8E2E5E9_574193189);" stroke="191970" /></g><g componentSequence="34"><text x="583" y="385" text-anchor="middle" style="font-weight:bold;font-size:10px;stroke:none; fill:#333399"><tspan dy="14" x="583">Portaria</tspan><tspan dy="14" x="583">Libera</tspan></text></g><g sequence="36"><rect x="420" y="160" width="106" height="104" ry="5" rx="5" style="fill:url(#linearGradientF8FBFEEDF5FCDEEDFAD4E7F8E2E5E9_595832452);" stroke="191970" /></g><g componentSequence="36"><text x="473" y="175" text-anchor="middle" style="font-weight:bold;font-size:10px;stroke:none; fill:#333399"><tspan dy="14" x="473">RH -</tspan><tspan dy="14" x="473">Treinament</tspan><tspan dy="14" x="473">os</tspan></text></g><g sequence="38"><rect x="730" y="10" width="106" height="66" ry="5" rx="5" style="fill:url(#linearGradientF8FBFEEDF5FCDEEDFAD4E7F8E2E5E9_542777712);" stroke="191970" /></g><g componentSequence="38"><text x="783" y="32" text-anchor="middle" style="font-weight:bold;font-size:10px;stroke:none; fill:#333399"><tspan dy="14" x="783">Medicina</tspan></text></g><g sequence="43"><polygon points=" 940 50 970 20 1000 50 970 80 940 50" style="fill:url(#linearGradientFAFBFCFFFFCC_2035937341);" stroke="000000" /></g><path style="fill:none; stroke-width:6; stroke:#000000;" d="M960.0 50.0 L980.0 50.0" /><path style="fill:none; stroke-width:6; stroke:#000000;" d="M970.0 40.0 L970.0 60.0" /><g componentSequence="43"><text x="970" y="88" text-anchor="middle" style="font-weight:bold;font-size:10px;stroke:none; fill:#333399"><tspan dy="14" x="970">Join</tspan></text></g><g sequence="46"><ellipse cx="1067" cy="57" rx="17" ry="17" stroke-width="3" style="fill:url(#linearGradientFF6666FF9696FFB6B6_276324709);" stroke="993333" /></g><g sequence="50"><ellipse cx="87" cy="376" rx="17" ry="17" stroke-width="1" style="fill:url(#linearGradientFFFF66FFFF96FFFFB6_783354464);" stroke="999900" /></g><g sequence="50"><polygon points=" 73 369 88 369 88 362 103 377 88 392 88 385 73 385" style="stroke:#999900; fill:none" /></g><g sequence="51"><ellipse cx="607" cy="37" rx="17" ry="17" stroke-width="1" style="fill:url(#linearGradientFFFF66FFFF96FFFFB6_1595010919);" stroke="999900" /></g><g sequence="51"><polygon points=" 593 30 608 30 608 23 623 38 608 53 608 46 593 46" style="stroke:none; fill:#999900" /></g><g sequence="55"><ellipse cx="557" cy="235" rx="17" ry="17" stroke-width="1" style="fill:url(#linearGradientFFFF66FFFF96FFFFB6_1769940128);" stroke="999900" /></g><g sequence="55"><polygon points=" 543 228 558 228 558 221 573 236 558 251 558 244 543 244" style="stroke:none; fill:#999900" /></g><g sequence="61"><rect x="600" y="210" width="106" height="66" ry="5" rx="5" style="fill:url(#linearGradientF8FBFEEDF5FCDEEDFAD4E7F8E2E5E9_979305379);" stroke="191970" /></g><g componentSequence="61"><text x="653" y="232" text-anchor="middle" style="font-weight:bold;font-size:10px;stroke:none; fill:#333399"><tspan dy="14" x="653">Integração</tspan></text></g><g sequence="63"><rect x="750" y="200" width="106" height="104" ry="5" rx="5" style="fill:url(#linearGradientF8FBFEEDF5FCDEEDFAD4E7F8E2E5E9_479984770);" stroke="191970" /></g><g componentSequence="63"><text x="803" y="215" text-anchor="middle" style="font-weight:bold;font-size:10px;stroke:none; fill:#333399"><tspan dy="14" x="803">RH -</tspan><tspan dy="14" x="803">Aprovar</tspan><tspan dy="14" x="803">Integração</tspan></text></g><g sequence="67"><polygon points=" 560 140 590 110 620 140 590 170 560 140" style="fill:url(#linearGradientFAFBFCFFFFCC_1277252257);" stroke="000000" /></g><g componentSequence="67"><text x="590" y="178" text-anchor="middle" style="font-weight:bold;font-size:10px;stroke:none; fill:#333399"><tspan dy="14" x="590">Ok?</tspan></text></g><g sequence="71"><polygon points=" 340 200 370 170 400 200 370 230 340 200" style="fill:url(#linearGradientFAFBFCFFFFCC_1550525857);" stroke="000000" /></g><g componentSequence="71"><text x="370" y="238" text-anchor="middle" style="font-weight:bold;font-size:10px;stroke:none; fill:#333399"><tspan dy="14" x="370">Ok?</tspan></text></g><g sequence="75"><polygon points=" 860 40 890 10 920 40 890 70 860 40" style="fill:url(#linearGradientFAFBFCFFFFCC_510359444);" stroke="000000" /></g><g componentSequence="75"><text x="890" y="78" text-anchor="middle" style="font-weight:bold;font-size:10px;stroke:none; fill:#333399"><tspan dy="14" x="890">Ok?</tspan></text></g><g sequence="79"><polygon points=" 460 510 490 480 520 510 490 540 460 510" style="fill:url(#linearGradientFAFBFCFFFFCC_1566041911);" stroke="000000" /></g><g componentSequence="79"><text x="490" y="550" text-anchor="middle" style="font-weight:bold;font-size:10px;stroke:none; fill:#333399"><tspan dy="14" x="490">Risco</tspan><tspan dy="14" x="490">avalia</tspan><tspan dy="14" x="490">do</tspan></text></g><g sequence="83"><polygon points=" 940 590 970 560 1000 590 970 620 940 590" style="fill:url(#linearGradientFAFBFCFFFFCC_463798886);" stroke="000000" /></g><g componentSequence="83"><text x="970" y="628" text-anchor="middle" style="font-weight:bold;font-size:10px;stroke:none; fill:#333399"><tspan dy="14" x="970">Ok?</tspan></text></g><g sequence="91"><polygon points=" 250 610 280 580 310 610 280 640 250 610" style="fill:url(#linearGradientFAFBFCFFFFCC_518417054);" stroke="000000" /></g><g componentSequence="91"><text x="280" y="650" text-anchor="middle" style="font-weight:bold;font-size:10px;stroke:none; fill:#333399"><tspan dy="14" x="280">CQ-</tspan><tspan dy="14" x="280">LC ou</tspan><tspan dy="14" x="280">CT</tspan></text></g><g sequence="97"><ellipse cx="497" cy="684" rx="17" ry="17" stroke-width="1" style="fill:url(#linearGradientFFFF66FFFF96FFFFB6_1534355713);" stroke="999900" /></g><g sequence="97"><polygon points=" 483 677 498 677 498 670 513 685 498 700 498 693 483 693" style="stroke:none; fill:#999900" /></g><g sequence="100"><polygon points=" 240 30 270 0 300 30 270 60 240 30" style="fill:url(#linearGradientFAFBFCFFFFCC_972575495);" stroke="000000" /></g><g componentSequence="100"><text x="270" y="68" text-anchor="middle" style="font-weight:bold;font-size:10px;stroke:none; fill:#333399"><tspan dy="14" x="270">Ok?</tspan></text></g><g sequence="104"><polygon points=" 430 380 460 350 490 380 460 410 430 380" style="fill:url(#linearGradientFAFBFCFFFFCC_176013420);" stroke="000000" /></g><g componentSequence="104"><text x="460" y="418" text-anchor="middle" style="font-weight:bold;font-size:10px;stroke:none; fill:#333399"><tspan dy="14" x="460">Ok?</tspan></text></g><g sequence="108"><rect x="70" y="420" width="106" height="85" ry="5" rx="5" style="fill:url(#linearGradientF8FBFEEDF5FCDEEDFAD4E7F8E2E5E9_669186343);" stroke="191970" /></g><g componentSequence="108"><text x="123" y="435" text-anchor="middle" style="font-weight:bold;font-size:10px;stroke:none; fill:#333399"><tspan dy="14" x="123">Retorno</tspan><tspan dy="14" x="123">Solicitante</tspan></text></g><g sequence="120"><polygon points=" 760 120 790 90 820 120 790 150 760 120" style="fill:url(#linearGradientFAFBFCFFFFCC_1596371131);" stroke="000000" /></g><g componentSequence="120"><text x="790" y="158" text-anchor="middle" style="font-weight:bold;font-size:10px;stroke:none; fill:#333399"><tspan dy="14" x="790">Ok?</tspan></text></g><g sequence="124"><polygon points=" 120 540 150 510 180 540 150 570 120 540" style="fill:url(#linearGradientFAFBFCFFFFCC_608022579);" stroke="000000" /></g><g componentSequence="124"><text x="150" y="578" text-anchor="middle" style="font-weight:bold;font-size:10px;stroke:none; fill:#333399"><tspan dy="14" x="150">ASO?</tspan></text></g><g sequence="127"><ellipse cx="197" cy="597" rx="17" ry="17" stroke-width="1" style="fill:url(#linearGradientFFFF66FFFF96FFFFB6_1076324984);" stroke="999900" /></g><g sequence="127"><polygon points=" 183 590 198 590 198 583 213 598 198 613 198 606 183 606" style="stroke:none; fill:#999900" /></g><g sequence="129"><ellipse cx="677" cy="37" rx="17" ry="17" stroke-width="1" style="fill:url(#linearGradientFFFF66FFFF96FFFFB6_1891403930);" stroke="999900" /></g><g sequence="129"><polygon points=" 663 30 678 30 678 23 693 38 678 53 678 46 663 46" style="stroke:#999900; fill:none" /></g><g sequence="131"><polygon points=" 430 290 460 260 490 290 460 320 430 290" style="fill:url(#linearGradientFAFBFCFFFFCC_443899230);" stroke="000000" /></g><g componentSequence="131"><text x="460" y="328" text-anchor="middle" style="font-weight:bold;font-size:10px;stroke:none; fill:#333399"><tspan dy="14" x="460">NR?</tspan></text></g><g sequence="134"><ellipse cx="387" cy="297" rx="17" ry="17" stroke-width="1" style="fill:url(#linearGradientFFFF66FFFF96FFFFB6_1392564747);" stroke="999900" /></g><g sequence="134"><polygon points=" 373 290 388 290 388 283 403 298 388 313 388 306 373 306" style="stroke:none; fill:#999900" /></g><g componentSequence="25"><text x="698" y="615" style="font-size:10px;font-weight:none;stroke:none; fill:#333399" text-anchor="left" /></g><g componentSequence="28"><text x="132" y="143" style="font-size:10px;font-weight:none;stroke:none; fill:#333399" text-anchor="left" /></g><g componentSequence="29"><text x="207" y="383" style="font-size:10px;font-weight:none;stroke:none; fill:#333399" text-anchor="left" /></g><g componentSequence="30"><text x="190" y="233" style="font-size:10px;font-weight:none;stroke:none; fill:#333399" text-anchor="left" /></g><g componentSequence="35"><text x="475" y="410" style="font-size:10px;font-weight:none;stroke:none; fill:#333399" text-anchor="left" /></g><g componentSequence="47"><text x="1035" y="62" style="font-size:10px;font-weight:none;stroke:none; fill:#333399" text-anchor="left" /></g><g componentSequence="64"><text x="738" y="247" style="font-size:10px;font-weight:none;stroke:none; fill:#333399" text-anchor="left" /></g><g componentSequence="68"><text x="553" y="181" style="font-size:10px;font-weight:none;stroke:none; fill:#333399" text-anchor="left" /></g><g componentSequence="69"><text x="611" y="82" style="font-size:10px;font-weight:none;stroke:none; fill:#333399" text-anchor="left" /></g><g componentSequence="70"><text x="634" y="204" style="font-size:10px;font-weight:none;stroke:none; fill:#333399" text-anchor="left" /></g><g componentSequence="72"><text x="338" y="221" style="font-size:10px;font-weight:none;stroke:none; fill:#333399" text-anchor="left" /></g><g componentSequence="73"><text x="380" y="309" style="font-size:10px;font-weight:none;stroke:none; fill:#333399" text-anchor="left" /></g><g componentSequence="74"><text x="430" y="37" style="font-size:10px;font-weight:none;stroke:none; fill:#333399" text-anchor="left" /></g><g componentSequence="76"><text x="858" y="53" style="font-size:10px;font-weight:none;stroke:none; fill:#333399" text-anchor="left" /></g><g componentSequence="77"><text x="940" y="63" style="font-size:10px;font-weight:none;stroke:none; fill:#333399" text-anchor="left" /></g><g componentSequence="84"><text x="888" y="635" style="font-size:10px;font-weight:none;stroke:none; fill:#333399" text-anchor="left" /></g><g componentSequence="89"><text x="452" y="615" style="font-size:10px;font-weight:none;stroke:none; fill:#333399" text-anchor="left" /></g><g componentSequence="90"><text x="550" y="554" style="font-size:10px;font-weight:none;stroke:none; fill:#333399" text-anchor="left" /></g><g componentSequence="92"><text x="263" y="588" style="font-size:10px;font-weight:none;stroke:none; fill:#333399" text-anchor="left" /></g><g componentSequence="93"><text x="335" y="662" style="font-size:10px;font-weight:none;stroke:none; fill:#333399" text-anchor="left" /></g><g componentSequence="98"><text x="473" y="684" style="font-size:10px;font-weight:none;stroke:none; fill:#333399" text-anchor="left" /></g><g componentSequence="99"><text x="813" y="588" style="font-size:10px;font-weight:none;stroke:none; fill:#333399" text-anchor="left" /></g><g componentSequence="101"><text x="218" y="54" style="font-size:10px;font-weight:none;stroke:none; fill:#333399" text-anchor="left" /></g><g componentSequence="102"><text x="459" y="17" style="font-size:10px;font-weight:none;stroke:none; fill:#333399" text-anchor="left" /></g><g componentSequence="103"><text x="276" y="139" style="font-size:10px;font-weight:none;stroke:none; fill:#333399" text-anchor="left" /></g><g componentSequence="105"><text x="520" y="404" style="font-size:10px;font-weight:none;stroke:none; fill:#333399" text-anchor="left" /></g><g componentSequence="106"><text x="528" y="301" style="font-size:10px;font-weight:none;stroke:none; fill:#333399" text-anchor="left" /></g><g componentSequence="109"><text x="110" y="407" style="font-size:10px;font-weight:none;stroke:none; fill:#333399" text-anchor="left" /></g><g componentSequence="111"><text x="980" y="339" style="font-size:10px;font-weight:none;stroke:none; fill:#333399" text-anchor="left" /></g><g componentSequence="112"><text x="937" y="484" style="font-size:10px;font-weight:none;stroke:none; fill:#333399" text-anchor="left" /></g><g componentSequence="117"><text x="753" y="-15" style="font-size:10px;font-weight:none;stroke:none; fill:#333399" text-anchor="left" /></g><g componentSequence="118"><text x="131" y="364" style="font-size:10px;font-weight:none;stroke:none; fill:#333399" text-anchor="left" /></g><g componentSequence="119"><text x="289" y="469" style="font-size:10px;font-weight:none;stroke:none; fill:#333399" text-anchor="left" /></g><g componentSequence="121"><text x="807" y="194" style="font-size:10px;font-weight:none;stroke:none; fill:#333399" text-anchor="left" /></g><g componentSequence="122"><text x="796" y="83" style="font-size:10px;font-weight:none;stroke:none; fill:#333399" text-anchor="left" /></g><g componentSequence="123"><text x="702" y="85" style="font-size:10px;font-weight:none;stroke:none; fill:#333399" text-anchor="left" /></g><g componentSequence="125"><text x="122" y="547" style="font-size:10px;font-weight:none;stroke:none; fill:#333399" text-anchor="left" /></g><g componentSequence="126"><text x="200" y="549" style="font-size:10px;font-weight:none;stroke:none; fill:#333399" text-anchor="left" /></g><g componentSequence="128"><text x="190" y="583" style="font-size:10px;font-weight:none;stroke:none; fill:#333399" text-anchor="left" /></g><g componentSequence="130"><text x="722" y="39" style="font-size:10px;font-weight:none;stroke:none; fill:#333399" text-anchor="left" /></g><g componentSequence="133"><text x="476" y="262" style="font-size:10px;font-weight:none;stroke:none; fill:#333399" text-anchor="left" /></g><g componentSequence="135"><text x="427" y="302" style="font-size:10px;font-weight:none;stroke:none; fill:#333399" text-anchor="left" /></g><g componentSequence="136"><text x="470" y="354" style="font-size:10px;font-weight:none;stroke:none; fill:#333399" text-anchor="left" /></g><path style="fill:none; stroke:#000000;stroke-width:1" d="M104.0 544.0 L119.0 549.0" /><polygon style="fill:#000000; stroke:#000000;" points=" 111 541 119 549 108 551 111 546" /><path style="fill:none; stroke:#000000;stroke-width:1" d="M176.0 57.0 L239.0 51.0" /><polygon style="fill:#000000; stroke:#000000;" points=" 229 47 239 51 230 57 231 52" /><path style="fill:none; stroke:#000000;stroke-width:1" d="M121.0 171.0 L122.0 114.0" /><polygon style="fill:#000000; stroke:#000000;" points=" 117 124 122 114 127 124 122 122" /><path style="fill:none; stroke:#000000;stroke-width:1" d="M217.0 479.0 L197.0 382.0 L150.0 296.0" /><polygon style="fill:#000000; stroke:#000000;" points=" 150 307 150 296 159 302 154 303" /><path style="fill:none; stroke:#000000;stroke-width:1" d="M257.0 597.0 L249.0 580.0" /><polygon style="fill:#000000; stroke:#000000;" points=" 249 591 249 580 258 587 252 587" /><path style="fill:none; stroke:#000000;stroke-width:1" d="M180.0 551.0 L199.0 546.0" /><polygon style="fill:#000000; stroke:#000000;" points=" 188 544 199 546 191 553 191 548" /><path style="fill:none; stroke:#000000;stroke-width:1" d="M316.0 221.0 L339.0 220.0" /><polygon style="fill:#000000; stroke:#000000;" points=" 329 215 339 220 329 225 331 220" /><path style="fill:none; stroke:#000000;stroke-width:1" d="M150.0 236.0 L209.0 229.0" /><polygon style="fill:#000000; stroke:#000000;" points=" 198 225 209 229 200 235 201 230" /><path style="fill:none; stroke:#000000;stroke-width:1" d="M268.0 98.0 L264.0 179.0" /><polygon style="fill:#000000; stroke:#000000;" points=" 269 169 264 179 259 169 264 171" /><path style="fill:none; stroke:#000000;stroke-width:1" d="M424.0 639.0 L459.0 590.0" /><polygon style="fill:#000000; stroke:#000000;" points=" 449 595 459 590 457 601 454 597" /><path style="fill:none; stroke:#000000;stroke-width:1" d="M446.0 683.0 L480.0 684.0" /><polygon style="fill:#000000; stroke:#000000;" points=" 470 679 480 684 470 689 472 684" /><path style="fill:none; stroke:#000000;stroke-width:1" d="M310.0 657.0 L339.0 666.0" /><polygon style="fill:#000000; stroke:#000000;" points=" 331 658 339 666 328 668 331 664" /><path style="fill:none; stroke:#000000;stroke-width:1" d="M666.0 600.0 L709.0 630.0" /><polygon style="fill:#000000; stroke:#000000;" points=" 704 620 709 630 698 628 702 625" /><path style="fill:none; stroke:#000000;stroke-width:1" d="M520.0 551.0 L559.0 556.0" /><polygon style="fill:#000000; stroke:#000000;" points=" 550 550 559 556 548 560 551 555" /><path style="fill:none; stroke:#000000;stroke-width:1" d="M939.0 605.0 L666.0 570.0" /><polygon style="fill:#000000; stroke:#000000;" points=" 675 576 666 570 677 566 674 571" /><path style="fill:none; stroke:#000000;stroke-width:1" d="M816.0 653.0 L939.0 617.0" /><polygon style="fill:#000000; stroke:#000000;" points=" 928 615 939 617 931 625 931 619" /><path style="fill:none; stroke:#000000;stroke-width:1" d="M122.0 419.0 L121.0 308.0" /><polygon style="fill:#000000; stroke:#000000;" points=" 116 318 121 308 126 318 121 316" /><path style="fill:none; stroke:#000000;stroke-width:1" d="M400.0 409.0 L529.0 411.0" /><polygon style="fill:#000000; stroke:#000000;" points=" 519 406 529 411 519 416 521 411" /><path style="fill:none; stroke:#000000;stroke-width:1" d="M370.0 268.0 L370.0 349.0" /><polygon style="fill:#000000; stroke:#000000;" points=" 375 339 370 349 365 339 370 341" /><path style="fill:none; stroke:#000000;stroke-width:1" d="M529.0 406.0 L490.0 402.0" /><polygon style="fill:#000000; stroke:#000000;" points=" 499 408 490 402 500 398 498 403" /><path style="fill:none; stroke:#000000;stroke-width:1" d="M526.0 188.0 L559.0 173.0" /><polygon style="fill:#000000; stroke:#000000;" points=" 548 173 559 173 552 182 552 176" /><path style="fill:none; stroke:#000000;stroke-width:1" d="M466.0 259.0 L466.0 264.0" /><polygon style="fill:#000000; stroke:#000000;" points=" 471 254 466 264 461 254 466 256" /><path style="fill:none; stroke:#000000;stroke-width:1" d="M836.0 51.0 L859.0 54.0" /><polygon style="fill:#000000; stroke:#000000;" points=" 850 48 859 54 848 58 851 53" /><path style="fill:none; stroke:#000000;stroke-width:1" d="M786.0 89.0 L785.0 76.0" /><polygon style="fill:#000000; stroke:#000000;" points=" 781 86 785 76 791 86 786 84" /><path style="fill:none; stroke:#000000;stroke-width:1" d="M694.0 38.0 L729.0 40.0" /><polygon style="fill:#000000; stroke:#000000;" points=" 719 34 729 40 719 44 721 40" /><path style="fill:none; stroke:#000000;stroke-width:1" d="M1000.0 65.0 L1050.0 59.0" /><polygon style="fill:#000000; stroke:#000000;" points=" 1039 55 1050 59 1041 65 1042 60" /><path style="fill:none; stroke:#000000;stroke-width:1" d="M920.0 62.0 L939.0 65.0" /><polygon style="fill:#000000; stroke:#000000;" points=" 930 59 939 65 928 68 931 64" /><path style="fill:none; stroke:#000000;stroke-width:1" d="M970.0 559.0 L970.0 118.0" /><polygon style="fill:#000000; stroke:#000000;" points=" 965 128 970 118 975 128 970 126" /><path style="fill:none; stroke:#000000;stroke-width:1" d="M520.0 481.0 L520.0 481.0 L624.0 484.0 L752.0 484.0 L855.0 484.0 L937.0 484.0 L969.0 484.0 L969.0 118.0" /><polygon style="fill:#000000; stroke:#000000;" points=" 964 128 969 118 974 128 969 126" /><path style="fill:none; stroke:#000000;stroke-width:1" d="M93.0 392.0 L105.0 419.0" /><polygon style="fill:#000000; stroke:#000000;" points=" 106 408 105 419 96 412 102 412" /><path style="fill:none; stroke:#000000;stroke-width:1" d="M597.0 109.0 L605.0 54.0" /><polygon style="fill:#000000; stroke:#000000;" points=" 599 63 605 54 609 65 604 62" /><path style="fill:none; stroke:#000000;stroke-width:1" d="M373.0 169.0 L383.0 37.0 L589.0 37.0" /><polygon style="fill:#000000; stroke:#000000;" points=" 579 32 589 37 579 42 581 37" /><path style="fill:none; stroke:#000000;stroke-width:1" d="M300.0 29.0 L320.0 17.0 L456.0 17.0 L598.0 22.0 L598.0 22.0" /><polygon style="fill:#000000; stroke:#000000;" points=" 588 17 598 22 588 27 590 22" /><path style="fill:none; stroke:#000000;stroke-width:1" d="M888.0 9.0 L888.0 -15.0 L607.0 -15.0 L607.0 19.0" /><polygon style="fill:#000000; stroke:#000000;" points=" 612 9 607 19 602 9 607 11" /><path style="fill:none; stroke:#000000;stroke-width:1" d="M759.0 122.0 L622.0 45.0" /><polygon style="fill:#000000; stroke:#000000;" points=" 628 54 622 45 633 46 629 49" /><path style="fill:none; stroke:#000000;stroke-width:1" d="M489.0 349.0 L548.0 250.0" /><polygon style="fill:#000000; stroke:#000000;" points=" 539 256 548 250 547 261 544 257" /><path style="fill:none; stroke:#000000;stroke-width:1" d="M706.0 246.0 L749.0 248.0" /><polygon style="fill:#000000; stroke:#000000;" points=" 739 243 749 248 739 253 741 248" /><path style="fill:none; stroke:#000000;stroke-width:1" d="M620.0 199.0 L627.0 209.0" /><polygon style="fill:#000000; stroke:#000000;" points=" 625 198 627 209 617 204 622 202" /><path style="fill:none; stroke:#000000;stroke-width:1" d="M797.0 199.0 L795.0 188.0" /><polygon style="fill:#000000; stroke:#000000;" points=" 792 199 795 188 802 197 796 196" /><path style="fill:none; stroke:#000000;stroke-width:1" d="M176.0 462.0 L279.0 463.0 L279.0 579.0" /><polygon style="fill:#000000; stroke:#000000;" points=" 284 569 279 579 274 569 279 571" /><path style="fill:none; stroke:#000000;stroke-width:1" d="M460.0 349.0 L460.0 358.0" /><polygon style="fill:#000000; stroke:#000000;" points=" 465 348 460 358 455 348 460 350" /><path style="fill:none; stroke:#000000;stroke-width:1" d="M180.0 583.0 L184.0 586.0" /><polygon style="fill:#000000; stroke:#000000;" points=" 179 576 184 586 173 584 178 581" /><path style="fill:none; stroke:#000000;stroke-width:1" d="M429.0 304.0 L404.0 299.0" /><polygon style="fill:#000000; stroke:#000000;" points=" 413 306 404 299 415 296 412 301" /><defs><linearGradient xmlns:xlink="http://www.w3.org/1999/xlink" xlink:href="#linearGradient66FF6696FF96B6FFB6" id="linearGradient66FF6696FF96B6FFB6_197256105" x1="0" y1="522.0" x2="0" y2="557.0" gradientUnits="userSpaceOnUse" xlink:type="simple" xlink:actuate="onLoad" xlink:show="other" /><linearGradient id="linearGradient66FF6696FF96B6FFB6"><stop style="stop-color:#66FF66;stop-opacity:1;" offset="0.0" id="stop66FF66" /><stop style="stop-color:#96FF96;stop-opacity:1;" offset="0.5" id="stop96FF96" /><stop style="stop-color:#B6FFB6;stop-opacity:1;" offset="1.0" id="stopB6FFB6" /></linearGradient><linearGradient xmlns:xlink="http://www.w3.org/1999/xlink" xlink:href="#linearGradientF8FBFEEDF5FCDEEDFAD4E7F8E2E5E9" id="linearGradientF8FBFEEDF5FCDEEDFAD4E7F8E2E5E9_84282529" x1="0" y1="10.0" x2="0" y2="116.0" gradientUnits="userSpaceOnUse" xlink:type="simple" xlink:actuate="onLoad" xlink:show="other" /><linearGradient id="linearGradientF8FBFEEDF5FCDEEDFAD4E7F8E2E5E9"><stop style="stop-color:#F8FBFE;stop-opacity:1;" offset="0.0" id="stopF8FBFE" /><stop style="stop-color:#EDF5FC;stop-opacity:1;" offset="0.25" id="stopEDF5FC" /><stop style="stop-color:#DEEDFA;stop-opacity:1;" offset="0.5" id="stopDEEDFA" /><stop style="stop-color:#D4E7F8;stop-opacity:1;" offset="0.75" id="stopD4E7F8" /><stop style="stop-color:#E2E5E9;stop-opacity:1;" offset="1.0" id="stopE2E5E9" /></linearGradient><linearGradient xmlns:xlink="http://www.w3.org/1999/xlink" xlink:href="#linearGradientFAFBFCFFFFCC" id="linearGradientFAFBFCFFFFCC_20547801" x1="0" y1="480.0" x2="0" y2="540.0" gradientUnits="userSpaceOnUse" xlink:type="simple" xlink:actuate="onLoad" xlink:show="other" /><linearGradient id="linearGradientFAFBFCFFFFCC"><stop style="stop-color:#FAFBFC;stop-opacity:1;" offset="0.0" id="stopFAFBFC" /><stop style="stop-color:#FFFFCC;stop-opacity:1;" offset="1.0" id="stopFFFFCC" /></linearGradient><linearGradient xmlns:xlink="http://www.w3.org/1999/xlink" xlink:href="#linearGradientF8FBFEEDF5FCDEEDFAD4E7F8E2E5E9" id="linearGradientF8FBFEEDF5FCDEEDFAD4E7F8E2E5E9_1144719002" x1="0" y1="180.0" x2="0" y2="286.0" gradientUnits="userSpaceOnUse" xlink:type="simple" xlink:actuate="onLoad" xlink:show="other" /><linearGradient xmlns:xlink="http://www.w3.org/1999/xlink" xlink:href="#linearGradientF8FBFEEDF5FCDEEDFAD4E7F8E2E5E9" id="linearGradientF8FBFEEDF5FCDEEDFAD4E7F8E2E5E9_1080260895" x1="0" y1="640.0" x2="0" y2="746.0" gradientUnits="userSpaceOnUse" xlink:type="simple" xlink:actuate="onLoad" xlink:show="other" /><linearGradient xmlns:xlink="http://www.w3.org/1999/xlink" xlink:href="#linearGradientF8FBFEEDF5FCDEEDFAD4E7F8E2E5E9" id="linearGradientF8FBFEEDF5FCDEEDFAD4E7F8E2E5E9_1966409398" x1="0" y1="521.0" x2="0" y2="627.0" gradientUnits="userSpaceOnUse" xlink:type="simple" xlink:actuate="onLoad" xlink:show="other" /><linearGradient xmlns:xlink="http://www.w3.org/1999/xlink" xlink:href="#linearGradientF8FBFEEDF5FCDEEDFAD4E7F8E2E5E9" id="linearGradientF8FBFEEDF5FCDEEDFAD4E7F8E2E5E9_948381577" x1="0" y1="626.0" x2="0" y2="732.0" gradientUnits="userSpaceOnUse" xlink:type="simple" xlink:actuate="onLoad" xlink:show="other" /><linearGradient xmlns:xlink="http://www.w3.org/1999/xlink" xlink:href="#linearGradientFAFBFCFFFFCC" id="linearGradientFAFBFCFFFFCC_605354453" x1="0" y1="172.0" x2="0" y2="232.0" gradientUnits="userSpaceOnUse" xlink:type="simple" xlink:actuate="onLoad" xlink:show="other" /><linearGradient xmlns:xlink="http://www.w3.org/1999/xlink" xlink:href="#linearGradientFAFBFCFFFFCC" id="linearGradientFAFBFCFFFFCC_2137311177" x1="0" y1="350.0" x2="0" y2="410.0" gradientUnits="userSpaceOnUse" xlink:type="simple" xlink:actuate="onLoad" xlink:show="other" /><linearGradient xmlns:xlink="http://www.w3.org/1999/xlink" xlink:href="#linearGradientF8FBFEEDF5FCDEEDFAD4E7F8E2E5E9" id="linearGradientF8FBFEEDF5FCDEEDFAD4E7F8E2E5E9_574193189" x1="0" y1="370.0" x2="0" y2="476.0" gradientUnits="userSpaceOnUse" xlink:type="simple" xlink:actuate="onLoad" xlink:show="other" /><linearGradient xmlns:xlink="http://www.w3.org/1999/xlink" xlink:href="#linearGradientF8FBFEEDF5FCDEEDFAD4E7F8E2E5E9" id="linearGradientF8FBFEEDF5FCDEEDFAD4E7F8E2E5E9_595832452" x1="0" y1="160.0" x2="0" y2="266.0" gradientUnits="userSpaceOnUse" xlink:type="simple" xlink:actuate="onLoad" xlink:show="other" /><linearGradient xmlns:xlink="http://www.w3.org/1999/xlink" xlink:href="#linearGradientF8FBFEEDF5FCDEEDFAD4E7F8E2E5E9" id="linearGradientF8FBFEEDF5FCDEEDFAD4E7F8E2E5E9_542777712" x1="0" y1="10.0" x2="0" y2="116.0" gradientUnits="userSpaceOnUse" xlink:type="simple" xlink:actuate="onLoad" xlink:show="other" /><linearGradient xmlns:xlink="http://www.w3.org/1999/xlink" xlink:href="#linearGradientFAFBFCFFFFCC" id="linearGradientFAFBFCFFFFCC_2035937341" x1="0" y1="20.0" x2="0" y2="80.0" gradientUnits="userSpaceOnUse" xlink:type="simple" xlink:actuate="onLoad" xlink:show="other" /><linearGradient xmlns:xlink="http://www.w3.org/1999/xlink" xlink:href="#linearGradientFF6666FF9696FFB6B6" id="linearGradientFF6666FF9696FFB6B6_276324709" x1="0" y1="40.0" x2="0" y2="75.0" gradientUnits="userSpaceOnUse" xlink:type="simple" xlink:actuate="onLoad" xlink:show="other" /><linearGradient id="linearGradientFF6666FF9696FFB6B6"><stop style="stop-color:#FF6666;stop-opacity:1;" offset="0.0" id="stopFF6666" /><stop style="stop-color:#FF9696;stop-opacity:1;" offset="0.5" id="stopFF9696" /><stop style="stop-color:#FFB6B6;stop-opacity:1;" offset="1.0" id="stopFFB6B6" /></linearGradient><linearGradient xmlns:xlink="http://www.w3.org/1999/xlink" xlink:href="#linearGradientFFFF66FFFF96FFFFB6" id="linearGradientFFFF66FFFF96FFFFB6_783354464" x1="0" y1="359.0" x2="0" y2="394.0" gradientUnits="userSpaceOnUse" xlink:type="simple" xlink:actuate="onLoad" xlink:show="other" /><linearGradient id="linearGradientFFFF66FFFF96FFFFB6"><stop style="stop-color:#FFFF66;stop-opacity:1;" offset="0.0" id="stopFFFF66" /><stop style="stop-color:#FFFF96;stop-opacity:1;" offset="0.5" id="stopFFFF96" /><stop style="stop-color:#FFFFB6;stop-opacity:1;" offset="1.0" id="stopFFFFB6" /></linearGradient><linearGradient xmlns:xlink="http://www.w3.org/1999/xlink" xlink:href="#linearGradientFFFF66FFFF96FFFFB6" id="linearGradientFFFF66FFFF96FFFFB6_1595010919" x1="0" y1="20.0" x2="0" y2="55.0" gradientUnits="userSpaceOnUse" xlink:type="simple" xlink:actuate="onLoad" xlink:show="other" /><linearGradient xmlns:xlink="http://www.w3.org/1999/xlink" xlink:href="#linearGradientFFFF66FFFF96FFFFB6" id="linearGradientFFFF66FFFF96FFFFB6_1769940128" x1="0" y1="218.0" x2="0" y2="253.0" gradientUnits="userSpaceOnUse" xlink:type="simple" xlink:actuate="onLoad" xlink:show="other" /><linearGradient xmlns:xlink="http://www.w3.org/1999/xlink" xlink:href="#linearGradientF8FBFEEDF5FCDEEDFAD4E7F8E2E5E9" id="linearGradientF8FBFEEDF5FCDEEDFAD4E7F8E2E5E9_979305379" x1="0" y1="210.0" x2="0" y2="316.0" gradientUnits="userSpaceOnUse" xlink:type="simple" xlink:actuate="onLoad" xlink:show="other" /><linearGradient xmlns:xlink="http://www.w3.org/1999/xlink" xlink:href="#linearGradientF8FBFEEDF5FCDEEDFAD4E7F8E2E5E9" id="linearGradientF8FBFEEDF5FCDEEDFAD4E7F8E2E5E9_479984770" x1="0" y1="200.0" x2="0" y2="306.0" gradientUnits="userSpaceOnUse" xlink:type="simple" xlink:actuate="onLoad" xlink:show="other" /><linearGradient xmlns:xlink="http://www.w3.org/1999/xlink" xlink:href="#linearGradientFAFBFCFFFFCC" id="linearGradientFAFBFCFFFFCC_1277252257" x1="0" y1="110.0" x2="0" y2="170.0" gradientUnits="userSpaceOnUse" xlink:type="simple" xlink:actuate="onLoad" xlink:show="other" /><linearGradient xmlns:xlink="http://www.w3.org/1999/xlink" xlink:href="#linearGradientFAFBFCFFFFCC" id="linearGradientFAFBFCFFFFCC_1550525857" x1="0" y1="170.0" x2="0" y2="230.0" gradientUnits="userSpaceOnUse" xlink:type="simple" xlink:actuate="onLoad" xlink:show="other" /><linearGradient xmlns:xlink="http://www.w3.org/1999/xlink" xlink:href="#linearGradientFAFBFCFFFFCC" id="linearGradientFAFBFCFFFFCC_510359444" x1="0" y1="10.0" x2="0" y2="70.0" gradientUnits="userSpaceOnUse" xlink:type="simple" xlink:actuate="onLoad" xlink:show="other" /><linearGradient xmlns:xlink="http://www.w3.org/1999/xlink" xlink:href="#linearGradientFAFBFCFFFFCC" id="linearGradientFAFBFCFFFFCC_1566041911" x1="0" y1="480.0" x2="0" y2="540.0" gradientUnits="userSpaceOnUse" xlink:type="simple" xlink:actuate="onLoad" xlink:show="other" /><linearGradient xmlns:xlink="http://www.w3.org/1999/xlink" xlink:href="#linearGradientFAFBFCFFFFCC" id="linearGradientFAFBFCFFFFCC_463798886" x1="0" y1="560.0" x2="0" y2="620.0" gradientUnits="userSpaceOnUse" xlink:type="simple" xlink:actuate="onLoad" xlink:show="other" /><linearGradient xmlns:xlink="http://www.w3.org/1999/xlink" xlink:href="#linearGradientFAFBFCFFFFCC" id="linearGradientFAFBFCFFFFCC_518417054" x1="0" y1="580.0" x2="0" y2="640.0" gradientUnits="userSpaceOnUse" xlink:type="simple" xlink:actuate="onLoad" xlink:show="other" /><linearGradient xmlns:xlink="http://www.w3.org/1999/xlink" xlink:href="#linearGradientFFFF66FFFF96FFFFB6" id="linearGradientFFFF66FFFF96FFFFB6_1534355713" x1="0" y1="667.0" x2="0" y2="702.0" gradientUnits="userSpaceOnUse" xlink:type="simple" xlink:actuate="onLoad" xlink:show="other" /><linearGradient xmlns:xlink="http://www.w3.org/1999/xlink" xlink:href="#linearGradientFAFBFCFFFFCC" id="linearGradientFAFBFCFFFFCC_972575495" x1="0" y1="0.0" x2="0" y2="60.0" gradientUnits="userSpaceOnUse" xlink:type="simple" xlink:actuate="onLoad" xlink:show="other" /><linearGradient xmlns:xlink="http://www.w3.org/1999/xlink" xlink:href="#linearGradientFAFBFCFFFFCC" id="linearGradientFAFBFCFFFFCC_176013420" x1="0" y1="350.0" x2="0" y2="410.0" gradientUnits="userSpaceOnUse" xlink:type="simple" xlink:actuate="onLoad" xlink:show="other" /><linearGradient xmlns:xlink="http://www.w3.org/1999/xlink" xlink:href="#linearGradientF8FBFEEDF5FCDEEDFAD4E7F8E2E5E9" id="linearGradientF8FBFEEDF5FCDEEDFAD4E7F8E2E5E9_669186343" x1="0" y1="420.0" x2="0" y2="526.0" gradientUnits="userSpaceOnUse" xlink:type="simple" xlink:actuate="onLoad" xlink:show="other" /><linearGradient xmlns:xlink="http://www.w3.org/1999/xlink" xlink:href="#linearGradientFAFBFCFFFFCC" id="linearGradientFAFBFCFFFFCC_1596371131" x1="0" y1="90.0" x2="0" y2="150.0" gradientUnits="userSpaceOnUse" xlink:type="simple" xlink:actuate="onLoad" xlink:show="other" /><linearGradient xmlns:xlink="http://www.w3.org/1999/xlink" xlink:href="#linearGradientFAFBFCFFFFCC" id="linearGradientFAFBFCFFFFCC_608022579" x1="0" y1="510.0" x2="0" y2="570.0" gradientUnits="userSpaceOnUse" xlink:type="simple" xlink:actuate="onLoad" xlink:show="other" /><linearGradient xmlns:xlink="http://www.w3.org/1999/xlink" xlink:href="#linearGradientFFFF66FFFF96FFFFB6" id="linearGradientFFFF66FFFF96FFFFB6_1076324984" x1="0" y1="580.0" x2="0" y2="615.0" gradientUnits="userSpaceOnUse" xlink:type="simple" xlink:actuate="onLoad" xlink:show="other" /><linearGradient xmlns:xlink="http://www.w3.org/1999/xlink" xlink:href="#linearGradientFFFF66FFFF96FFFFB6" id="linearGradientFFFF66FFFF96FFFFB6_1891403930" x1="0" y1="20.0" x2="0" y2="55.0" gradientUnits="userSpaceOnUse" xlink:type="simple" xlink:actuate="onLoad" xlink:show="other" /><linearGradient xmlns:xlink="http://www.w3.org/1999/xlink" xlink:href="#linearGradientFAFBFCFFFFCC" id="linearGradientFAFBFCFFFFCC_443899230" x1="0" y1="260.0" x2="0" y2="320.0" gradientUnits="userSpaceOnUse" xlink:type="simple" xlink:actuate="onLoad" xlink:show="other" /><linearGradient xmlns:xlink="http://www.w3.org/1999/xlink" xlink:href="#linearGradientFFFF66FFFF96FFFFB6" id="linearGradientFFFF66FFFF96FFFFB6_1392564747" x1="0" y1="280.0" x2="0" y2="315.0" gradientUnits="userSpaceOnUse" xlink:type="simple" xlink:actuate="onLoad" xlink:show="other" /></defs></svg>
